<svg id="svg" version="1.1" xmlns="http://www.w3.org/2000/svg" xmlns:xlink="http://www.w3.org/1999/xlink" width="400" height="400" viewBox="0, 0, 400,400"><g id="svgg"><path id="path0" d="M276.660 50.675 C 277.466 50.759,278.784 50.759,279.590 50.675 C 280.396 50.591,279.736 50.522,278.125 50.522 C 276.514 50.522,275.854 50.591,276.660 50.675 M110.718 55.957 L 109.570 57.227 110.840 56.079 C 112.023 55.010,112.289 54.688,111.987 54.688 C 111.920 54.688,111.349 55.259,110.718 55.957 M282.605 107.129 L 280.273 109.570 282.715 107.239 C 284.058 105.956,285.156 104.858,285.156 104.797 C 285.156 104.509,284.771 104.861,282.605 107.129 M123.031 107.129 C 123.988 108.149,124.823 108.984,124.886 108.984 C 125.179 108.984,124.869 108.634,123.145 107.015 L 121.289 105.273 123.031 107.129 M101.528 139.864 C 93.228 141.831,85.120 149.133,82.701 156.820 L 81.836 159.570 81.836 240.625 L 81.836 321.680 82.925 324.759 C 85.703 332.614,91.241 338.128,99.181 340.941 L 102.148 341.992 145.256 342.101 L 188.363 342.211 188.067 314.758 C 187.700 280.826,187.675 200.225,188.026 180.469 C 188.169 172.412,188.396 159.888,188.531 152.637 L 188.776 139.453 145.853 139.492 C 122.245 139.514,102.299 139.681,101.528 139.864 M218.226 145.402 C 218.360 148.683,218.272 166.572,218.031 185.156 C 217.789 203.740,217.500 234.766,217.388 254.102 C 217.276 273.438,217.073 301.167,216.937 315.723 L 216.691 342.188 258.897 342.188 C 306.311 342.188,304.689 342.275,310.547 339.401 C 316.936 336.266,322.203 329.649,324.020 322.474 C 325.064 318.353,324.890 162.159,323.837 158.041 C 321.820 150.156,315.769 143.436,308.095 140.560 L 305.664 139.648 261.823 139.543 L 217.981 139.437 218.226 145.402 " stroke="none" fill="#6e9c3d" fill-rule="evenodd"></path><path id="path1" d="M120.117 51.330 C 115.749 52.337,110.528 55.271,111.192 56.346 C 111.341 56.586,111.264 56.647,111.011 56.491 C 110.407 56.117,108.410 58.973,107.414 61.634 C 105.811 65.919,106.001 75.010,107.833 81.620 C 108.920 85.542,110.170 88.710,110.540 88.481 C 110.719 88.370,110.789 88.588,110.697 88.964 C 110.527 89.655,114.110 96.307,114.509 96.042 C 114.942 95.753,116.045 97.017,115.836 97.562 C 115.710 97.889,116.671 99.470,118.132 101.341 C 121.569 105.742,131.553 115.202,129.846 112.440 C 129.671 112.158,129.739 112.095,130.024 112.271 C 130.276 112.427,130.388 112.706,130.273 112.891 C 130.012 113.314,131.648 114.495,132.105 114.212 C 132.290 114.098,132.393 114.237,132.334 114.522 C 132.275 114.808,132.530 115.015,132.906 114.986 C 133.280 114.956,133.489 115.088,133.371 115.278 C 132.702 116.362,148.498 124.869,156.292 127.623 C 166.149 131.106,179.015 133.543,187.782 133.587 L 189.040 133.594 188.838 144.824 C 188.727 151.001,188.552 158.691,188.448 161.914 C 188.215 169.176,188.002 290.787,188.171 320.215 L 188.294 341.797 202.546 341.797 L 216.797 341.797 216.844 314.160 C 216.870 298.960,216.932 284.941,216.983 283.008 C 217.034 281.074,217.205 259.852,217.362 235.848 C 217.520 211.844,217.703 191.014,217.769 189.559 C 218.010 184.292,217.979 138.563,217.734 136.169 L 217.482 133.712 221.534 133.438 C 235.153 132.517,247.325 129.288,259.180 123.451 C 267.577 119.317,278.583 111.995,277.947 110.966 C 277.840 110.793,278.144 110.320,278.622 109.915 L 279.492 109.180 278.748 110.059 C 278.339 110.542,278.188 110.938,278.413 110.938 C 279.249 110.938,288.722 100.693,288.477 100.055 C 288.346 99.715,288.365 99.563,288.518 99.716 C 288.836 100.034,289.844 99.306,289.844 98.757 C 289.844 98.556,289.641 98.517,289.393 98.670 C 289.111 98.844,289.048 98.777,289.224 98.491 C 289.380 98.240,289.661 98.129,289.849 98.246 C 291.687 99.381,299.030 82.610,299.997 75.069 C 302.341 56.792,291.139 47.870,270.284 51.405 C 263.955 52.478,250.780 57.253,251.397 58.251 C 251.510 58.435,251.365 58.493,251.073 58.381 C 248.680 57.463,226.222 75.184,226.880 77.470 C 226.931 77.648,226.804 77.688,226.597 77.561 C 225.815 77.077,216.898 88.669,217.413 89.502 C 217.586 89.781,217.532 89.861,217.277 89.704 C 215.644 88.695,206.274 109.115,204.083 118.457 C 203.209 122.183,203.038 122.208,202.388 118.697 C 201.109 111.777,193.435 93.175,192.180 93.950 C 191.999 94.062,191.724 93.948,191.568 93.696 C 191.392 93.410,191.455 93.343,191.737 93.517 C 192.673 94.096,192.108 92.951,189.618 89.227 C 185.732 83.415,179.688 76.051,179.688 77.128 C 179.688 77.299,179.426 77.222,179.106 76.957 C 178.786 76.691,178.616 76.326,178.728 76.145 C 178.957 75.773,177.389 73.828,176.860 73.828 C 176.671 73.828,176.618 73.992,176.741 74.192 C 176.865 74.392,176.796 74.660,176.589 74.788 C 176.381 74.917,176.279 74.676,176.362 74.247 C 176.674 72.627,162.239 61.110,160.919 61.925 C 160.704 62.059,160.576 61.945,160.635 61.673 C 160.790 60.959,149.777 55.501,145.117 53.984 C 136.588 51.206,125.676 50.048,120.117 51.330 M126.666 51.447 C 126.185 51.540,125.306 51.542,124.712 51.452 C 124.119 51.362,124.512 51.287,125.586 51.284 C 126.660 51.281,127.146 51.354,126.666 51.447 M278.084 51.344 C 277.812 51.615,275.062 51.755,274.817 51.509 C 274.701 51.394,275.430 51.268,276.436 51.229 C 277.443 51.191,278.184 51.243,278.084 51.344 M281.543 51.452 C 280.952 51.541,279.985 51.541,279.395 51.452 C 278.804 51.362,279.287 51.289,280.469 51.289 C 281.650 51.289,282.134 51.362,281.543 51.452 M276.563 109.840 C 276.563 110.353,275.675 110.032,275.480 109.448 C 275.385 109.163,275.563 109.075,275.944 109.221 C 276.284 109.352,276.563 109.630,276.563 109.840 M200.916 114.806 C 201.277 115.967,201.505 116.985,201.422 117.068 C 201.339 117.150,200.993 116.366,200.653 115.326 C 200.313 114.285,199.913 113.092,199.764 112.674 C 199.587 112.175,199.626 112.048,199.877 112.305 C 200.087 112.520,200.555 113.645,200.916 114.806 M274.415 113.670 C 273.902 114.500,272.656 114.910,272.656 114.249 C 272.656 113.906,272.820 113.727,273.020 113.851 C 273.220 113.974,273.494 113.897,273.629 113.678 C 273.764 113.460,274.050 113.281,274.265 113.281 C 274.480 113.281,274.547 113.456,274.415 113.670 M155.273 126.411 C 156.215 126.840,156.253 126.898,155.469 126.705 C 154.932 126.574,153.965 126.226,153.320 125.932 C 152.379 125.504,152.341 125.446,153.125 125.638 C 153.662 125.770,154.629 126.118,155.273 126.411 M180.046 132.282 C 180.425 132.608,177.877 132.377,177.344 132.036 C 176.945 131.782,177.256 131.739,178.320 131.902 C 179.180 132.034,179.956 132.205,180.046 132.282 M202.056 341.291 C 201.576 341.383,200.697 341.386,200.103 341.296 C 199.509 341.206,199.902 341.130,200.977 341.127 C 202.051 341.124,202.537 341.198,202.056 341.291 M213.775 341.291 C 213.294 341.383,212.416 341.386,211.822 341.296 C 211.228 341.206,211.621 341.130,212.695 341.127 C 213.770 341.124,214.255 341.198,213.775 341.291 " stroke="none" fill="#14562a" fill-rule="evenodd"></path><path id="path2" d="M123.047 50.000 C 123.047 50.215,122.109 50.391,120.964 50.391 C 119.818 50.391,118.756 50.514,118.605 50.666 C 118.454 50.817,117.873 51.002,117.315 51.077 C 115.877 51.269,111.941 53.388,110.581 54.700 C 108.346 56.859,105.859 61.611,105.859 63.726 C 105.859 64.530,105.684 65.297,105.469 65.430 C 104.978 65.733,104.950 73.204,105.435 74.126 C 105.632 74.499,105.972 76.211,106.192 77.930 C 106.732 82.159,107.055 83.594,107.466 83.594 C 107.657 83.594,107.813 83.963,107.813 84.414 C 107.813 85.220,108.522 87.085,109.605 89.123 C 109.908 89.693,110.156 90.440,110.156 90.783 C 110.156 91.126,110.288 91.408,110.449 91.410 C 110.610 91.412,111.089 92.203,111.513 93.168 C 111.937 94.133,112.421 94.922,112.588 94.922 C 112.754 94.922,112.891 95.107,112.891 95.333 C 112.891 96.127,117.513 102.121,121.094 105.970 C 125.750 110.975,127.977 112.959,132.414 116.058 C 135.946 118.523,136.760 119.051,138.184 119.794 C 138.882 120.159,139.453 120.600,139.453 120.775 C 139.453 120.951,139.777 121.094,140.174 121.094 C 140.570 121.094,141.213 121.445,141.602 121.875 C 141.990 122.305,142.510 122.656,142.756 122.656 C 143.427 122.656,145.306 123.590,145.309 123.926 C 145.311 124.087,145.664 124.219,146.094 124.219 C 146.523 124.219,146.875 124.395,146.875 124.609 C 146.875 124.824,147.314 125.000,147.852 125.000 C 148.389 125.000,148.828 125.176,148.828 125.391 C 148.828 125.605,149.180 125.781,149.609 125.781 C 150.039 125.781,150.391 125.957,150.391 126.172 C 150.391 126.387,150.732 126.563,151.149 126.563 C 151.566 126.563,152.016 126.738,152.148 126.953 C 152.281 127.168,152.819 127.344,153.343 127.344 C 153.868 127.344,154.297 127.520,154.297 127.734 C 154.297 127.949,154.736 128.125,155.273 128.125 C 155.811 128.125,156.250 128.301,156.250 128.516 C 156.250 128.730,156.679 128.906,157.204 128.906 C 157.728 128.906,158.266 129.082,158.398 129.297 C 158.531 129.512,159.146 129.688,159.766 129.688 C 160.385 129.688,161.000 129.863,161.133 130.078 C 161.266 130.293,161.935 130.462,162.621 130.453 C 163.463 130.443,162.219 129.887,158.789 128.740 C 131.259 119.539,110.973 99.835,106.787 78.232 C 103.280 60.138,110.248 50.601,126.953 50.627 C 156.055 50.672,188.122 76.213,199.669 108.545 C 200.388 110.560,201.038 111.899,201.113 111.521 C 201.188 111.144,201.060 110.462,200.829 110.007 C 200.598 109.552,200.126 108.301,199.781 107.227 C 199.220 105.482,197.433 101.336,196.458 99.517 C 196.257 99.144,196.094 98.573,196.094 98.247 C 196.094 97.922,195.935 97.656,195.741 97.656 C 195.548 97.656,195.205 97.173,194.980 96.582 C 194.444 95.173,192.853 92.418,192.480 92.253 C 192.319 92.181,192.188 91.879,192.188 91.583 C 192.188 91.286,191.700 90.465,191.103 89.760 C 190.507 89.054,189.787 88.017,189.503 87.456 C 189.219 86.894,188.609 86.015,188.146 85.502 C 187.683 84.990,186.793 83.779,186.168 82.813 C 184.064 79.560,171.883 67.188,170.785 67.188 C 170.620 67.188,170.232 66.836,169.922 66.406 C 169.612 65.977,169.224 65.625,169.059 65.625 C 168.782 65.625,167.730 64.845,166.656 63.843 C 166.411 63.615,165.640 63.177,164.941 62.869 C 164.243 62.561,163.672 62.176,163.672 62.014 C 163.672 61.852,163.408 61.719,163.086 61.719 C 162.764 61.719,162.500 61.543,162.500 61.328 C 162.500 61.113,162.236 60.938,161.914 60.938 C 161.592 60.938,161.328 60.782,161.328 60.592 C 161.328 60.403,161.021 60.150,160.645 60.031 C 159.971 59.817,157.802 58.586,157.422 58.201 C 156.982 57.756,152.195 55.469,151.703 55.469 C 151.411 55.469,151.172 55.293,151.172 55.078 C 151.172 54.863,150.831 54.688,150.414 54.688 C 149.997 54.688,149.547 54.512,149.414 54.297 C 149.281 54.082,148.779 53.906,148.297 53.906 C 147.816 53.906,147.255 53.761,147.051 53.584 C 146.847 53.406,145.889 53.037,144.922 52.764 C 143.955 52.491,142.855 52.107,142.477 51.910 C 142.100 51.713,140.474 51.441,138.864 51.305 C 137.254 51.169,135.938 50.907,135.938 50.724 C 135.938 50.541,134.717 50.391,133.226 50.391 C 131.735 50.391,130.406 50.215,130.273 50.000 C 130.141 49.785,128.460 49.609,126.539 49.609 C 124.471 49.609,123.047 49.769,123.047 50.000 M273.438 50.000 C 273.438 50.220,272.331 50.391,270.898 50.391 C 269.466 50.391,268.359 50.561,268.359 50.781 C 268.359 50.996,267.700 51.180,266.895 51.189 C 266.089 51.198,264.727 51.459,263.867 51.769 C 263.008 52.079,262.030 52.335,261.694 52.338 C 261.359 52.341,260.357 52.695,259.467 53.125 C 258.578 53.555,257.683 53.906,257.478 53.906 C 256.791 53.906,249.349 57.630,248.828 58.234 C 248.721 58.359,248.062 58.710,247.363 59.013 C 246.665 59.317,246.094 59.699,246.094 59.861 C 246.094 60.023,245.863 60.156,245.581 60.156 C 245.300 60.156,244.692 60.508,244.231 60.938 C 243.769 61.367,243.209 61.719,242.985 61.719 C 242.761 61.719,242.578 61.852,242.578 62.014 C 242.578 62.176,242.095 62.526,241.504 62.791 C 240.468 63.255,237.902 65.268,236.026 67.090 C 235.528 67.573,234.992 67.969,234.834 67.969 C 234.676 67.969,234.294 68.320,233.984 68.750 C 233.675 69.180,233.248 69.531,233.037 69.531 C 232.179 69.531,222.080 80.353,220.703 82.746 C 220.381 83.307,219.941 83.975,219.727 84.232 C 218.657 85.509,217.275 87.366,216.316 88.817 C 215.729 89.704,215.070 90.642,214.851 90.901 C 214.632 91.161,214.453 91.516,214.453 91.690 C 214.453 91.864,214.005 92.665,213.458 93.471 C 212.162 95.378,208.984 101.609,208.984 102.243 C 208.984 102.513,208.853 102.735,208.691 102.736 C 208.530 102.737,208.072 103.572,207.674 104.591 C 207.275 105.611,206.704 106.999,206.404 107.676 C 206.104 108.353,205.859 109.266,205.859 109.704 C 205.859 110.142,205.684 110.609,205.469 110.742 C 205.254 110.875,205.083 111.457,205.090 112.035 C 205.097 112.689,205.770 111.388,206.870 108.594 C 220.329 74.414,252.097 49.215,280.078 50.525 C 294.356 51.193,300.391 57.317,300.391 71.140 C 300.391 89.006,284.546 110.742,263.672 121.512 C 262.289 122.225,262.078 122.454,262.680 122.582 C 263.102 122.672,263.512 122.550,263.592 122.310 C 263.672 122.071,263.971 121.875,264.258 121.875 C 264.544 121.875,264.837 121.743,264.909 121.582 C 265.072 121.215,267.153 119.947,268.066 119.657 C 268.442 119.538,268.750 119.285,268.750 119.095 C 268.750 118.905,268.946 118.750,269.186 118.750 C 269.663 118.750,273.553 116.017,273.763 115.534 C 273.835 115.369,274.067 115.234,274.279 115.234 C 274.491 115.234,274.888 115.015,275.161 114.746 C 275.434 114.478,276.248 113.818,276.970 113.281 C 278.723 111.976,285.827 104.907,287.439 102.863 C 288.145 101.966,289.169 100.736,289.713 100.128 C 291.907 97.679,296.484 90.059,296.484 88.855 C 296.484 88.540,296.632 88.281,296.812 88.281 C 297.250 88.281,297.937 86.724,298.261 84.996 C 298.406 84.225,298.638 83.594,298.776 83.594 C 299.123 83.594,299.973 80.775,300.262 78.669 C 300.393 77.713,300.651 76.838,300.836 76.724 C 301.315 76.428,301.263 65.337,300.781 65.039 C 300.566 64.906,300.391 64.198,300.391 63.464 C 300.391 58.980,293.432 51.673,288.589 51.072 C 288.006 51.000,287.406 50.817,287.254 50.666 C 287.103 50.514,286.140 50.391,285.114 50.391 C 284.088 50.391,283.141 50.215,283.008 50.000 C 282.869 49.775,280.790 49.609,278.102 49.609 C 275.253 49.609,273.438 49.761,273.438 50.000 M201.178 112.715 C 201.181 112.919,201.445 113.877,201.763 114.844 L 202.343 116.602 202.108 114.844 C 201.905 113.327,201.160 111.623,201.178 112.715 M204.546 113.585 C 204.424 113.781,204.228 114.716,204.110 115.662 L 203.894 117.383 204.510 115.486 C 205.071 113.759,205.090 112.704,204.546 113.585 M203.189 118.320 C 202.849 118.530,202.783 118.993,202.981 119.764 L 203.274 120.898 203.560 119.534 C 203.888 117.969,203.868 117.900,203.189 118.320 M258.398 124.208 C 256.680 125.036,255.546 125.729,255.879 125.747 C 256.641 125.790,258.587 124.903,258.591 124.512 C 258.592 124.351,258.953 124.219,259.391 124.219 C 259.830 124.219,260.566 123.867,261.027 123.438 C 262.114 122.425,262.076 122.436,258.398 124.208 M253.125 126.563 C 251.576 127.212,251.495 127.303,252.441 127.322 C 253.032 127.334,253.516 127.168,253.516 126.953 C 253.516 126.738,253.769 126.563,254.079 126.563 C 254.388 126.563,254.750 126.387,254.883 126.172 C 255.182 125.687,255.243 125.674,253.125 126.563 M247.852 128.516 C 247.159 128.813,247.193 128.854,248.145 128.879 C 248.735 128.894,249.219 128.730,249.219 128.516 C 249.219 128.057,248.919 128.057,247.852 128.516 M242.773 130.078 C 242.076 130.378,242.105 130.417,243.043 130.441 C 243.621 130.456,244.203 130.293,244.336 130.078 C 244.624 129.612,243.859 129.612,242.773 130.078 M164.063 130.817 C 164.063 131.055,164.667 131.250,165.407 131.250 C 166.146 131.250,166.859 131.426,166.992 131.641 C 167.125 131.855,167.828 132.031,168.555 132.031 C 169.281 132.031,169.984 132.207,170.117 132.422 C 170.250 132.637,171.359 132.801,172.582 132.787 C 174.726 132.762,174.653 132.730,170.508 131.855 C 168.145 131.357,165.728 130.822,165.137 130.667 C 164.441 130.484,164.063 130.537,164.063 130.817 M240.039 130.859 C 239.286 131.183,239.289 131.196,240.114 131.223 C 240.584 131.238,241.078 131.074,241.211 130.859 C 241.496 130.397,241.114 130.397,240.039 130.859 M236.523 131.641 C 235.417 131.922,235.442 131.941,236.989 131.985 C 237.889 132.010,238.734 131.855,238.867 131.641 C 239.140 131.200,238.257 131.200,236.523 131.641 M232.813 132.422 L 231.445 132.710 233.082 132.761 C 233.983 132.789,234.828 132.637,234.961 132.422 C 235.227 131.992,234.855 131.992,232.813 132.422 M175.178 133.176 C 175.323 133.409,176.661 133.594,178.213 133.594 C 181.680 133.594,181.525 133.387,177.792 133.031 C 175.787 132.840,174.998 132.884,175.178 133.176 M227.148 133.203 L 225.195 133.471 227.614 133.532 C 228.944 133.566,230.141 133.418,230.273 133.203 C 230.532 132.785,230.194 132.785,227.148 133.203 M184.180 133.974 C 184.609 134.164,185.699 134.332,186.602 134.348 C 187.722 134.366,188.376 134.592,188.663 135.059 C 189.027 135.650,189.069 135.611,188.975 134.766 C 188.872 133.836,188.735 133.785,186.133 133.708 C 184.274 133.653,183.649 133.738,184.180 133.974 M217.972 136.426 C 217.970 137.876,218.112 139.063,218.287 139.063 C 218.461 139.063,218.528 138.008,218.435 136.719 L 218.265 134.375 219.387 134.348 C 220.003 134.332,220.859 134.168,221.289 133.983 C 221.840 133.745,221.466 133.666,220.022 133.717 L 217.974 133.789 217.972 136.426 M187.934 138.166 C 187.472 138.668,187.472 138.804,187.934 139.093 C 188.298 139.321,188.519 139.241,188.604 138.849 C 188.820 137.867,188.505 137.546,187.934 138.166 M150.977 138.672 C 150.820 138.925,152.673 139.063,156.250 139.063 C 159.827 139.063,161.680 138.925,161.523 138.672 C 161.383 138.444,159.183 138.281,156.250 138.281 C 153.317 138.281,151.117 138.444,150.977 138.672 M294.761 138.616 C 294.647 138.800,296.790 139.049,299.523 139.168 C 312.921 139.753,322.781 148.213,324.610 160.696 L 324.903 162.695 324.949 160.156 C 324.978 158.580,324.774 157.193,324.412 156.498 C 324.091 155.883,323.828 155.136,323.828 154.838 C 323.828 154.540,323.674 154.297,323.486 154.297 C 323.298 154.297,323.047 153.813,322.928 153.223 C 322.411 150.662,315.090 142.188,313.394 142.188 C 313.117 142.188,312.889 142.056,312.888 141.895 C 312.884 141.544,310.992 140.625,310.274 140.625 C 309.994 140.625,309.766 140.449,309.766 140.234 C 309.766 140.020,309.161 139.844,308.421 139.844 C 307.682 139.844,306.969 139.668,306.836 139.453 C 306.703 139.238,305.736 139.063,304.688 139.063 C 303.639 139.063,302.672 138.887,302.539 138.672 C 302.245 138.196,295.052 138.145,294.761 138.616 M99.609 139.453 C 99.609 139.668,99.082 139.844,98.438 139.844 C 97.793 139.844,97.266 140.020,97.266 140.234 C 97.266 140.449,96.914 140.625,96.484 140.625 C 96.055 140.625,95.703 140.801,95.703 141.016 C 95.703 141.230,95.439 141.406,95.117 141.406 C 94.795 141.406,94.531 141.582,94.531 141.797 C 94.531 142.012,94.343 142.188,94.113 142.188 C 91.740 142.188,83.203 151.174,83.203 153.672 C 83.203 154.016,83.027 154.297,82.813 154.297 C 82.598 154.297,82.422 154.634,82.422 155.046 C 82.422 155.457,82.236 155.856,82.008 155.932 C 81.780 156.008,81.491 157.429,81.366 159.090 C 81.240 160.751,80.961 162.109,80.747 162.109 C 80.428 162.109,80.539 217.998,80.985 281.641 C 80.998 283.467,80.859 292.379,80.676 301.446 C 80.450 312.603,80.472 318.096,80.743 318.439 C 80.963 318.717,81.256 320.352,81.395 322.070 C 81.533 323.789,81.821 325.254,82.034 325.326 C 82.247 325.397,82.422 325.793,82.422 326.204 C 82.422 326.616,82.598 326.953,82.813 326.953 C 83.027 326.953,83.203 327.217,83.203 327.540 C 83.203 331.246,94.236 341.406,98.259 341.406 C 98.762 341.406,99.281 341.582,99.414 341.797 C 99.547 342.012,100.480 342.164,101.488 342.134 C 102.496 342.105,102.881 342.008,102.344 341.918 C 93.243 340.394,84.611 332.344,82.257 323.186 C 81.336 319.601,81.315 161.597,82.235 157.992 C 84.579 148.812,94.006 140.622,103.711 139.335 C 104.355 139.249,103.696 139.153,102.246 139.121 C 100.710 139.087,99.609 139.226,99.609 139.453 M324.675 319.475 C 324.203 328.900,315.663 338.808,305.781 341.398 L 302.930 342.144 304.762 342.166 C 305.770 342.178,306.703 342.012,306.836 341.797 C 306.969 341.582,307.496 341.406,308.008 341.406 C 308.520 341.406,309.035 341.250,309.153 341.059 C 309.271 340.868,309.849 340.591,310.438 340.443 C 314.718 339.369,323.828 329.081,323.828 325.322 C 323.828 324.930,323.993 324.609,324.195 324.609 C 324.679 324.609,325.100 321.694,324.900 319.727 C 324.751 318.266,324.736 318.250,324.675 319.475 M104.102 342.578 C 104.258 342.832,112.692 342.969,128.125 342.969 C 143.558 342.969,151.992 342.832,152.148 342.578 C 152.308 342.319,144.202 342.188,128.125 342.188 C 112.048 342.188,103.942 342.319,104.102 342.578 M177.656 342.656 C 178.021 343.021,178.229 343.021,178.594 342.656 C 178.958 342.292,178.854 342.188,178.125 342.188 C 177.396 342.188,177.292 342.292,177.656 342.656 M187.415 342.670 C 188.074 342.988,188.426 342.981,188.763 342.644 C 189.110 342.296,188.898 342.194,187.871 342.214 C 186.605 342.239,186.578 342.267,187.415 342.670 M261.133 342.578 C 261.266 342.793,262.057 342.969,262.891 342.969 C 263.725 342.969,264.516 342.793,264.648 342.578 C 264.797 342.337,264.124 342.188,262.891 342.188 C 261.657 342.188,260.984 342.337,261.133 342.578 M268.555 342.578 C 268.709 342.828,274.410 342.969,284.375 342.969 C 294.340 342.969,300.041 342.828,300.195 342.578 C 300.355 342.320,294.983 342.188,284.375 342.188 C 273.767 342.188,268.395 342.320,268.555 342.578 " stroke="none" fill="#f0f4df" fill-rule="evenodd"></path><path id="path3" d="M124.712 51.452 C 125.306 51.542,126.185 51.540,126.666 51.447 C 127.146 51.354,126.660 51.281,125.586 51.284 C 124.512 51.287,124.119 51.362,124.712 51.452 M274.817 51.509 C 275.062 51.755,277.812 51.615,278.084 51.344 C 278.184 51.243,277.443 51.191,276.436 51.229 C 275.430 51.268,274.701 51.394,274.817 51.509 M279.395 51.452 C 279.985 51.541,280.952 51.541,281.543 51.452 C 282.134 51.362,281.650 51.289,280.469 51.289 C 279.287 51.289,278.804 51.362,279.395 51.452 M176.024 73.047 C 176.265 73.369,176.410 73.957,176.346 74.352 C 176.283 74.748,176.340 74.963,176.473 74.829 C 176.971 74.331,176.858 73.455,176.232 72.966 C 175.680 72.534,175.649 72.546,176.024 73.047 M178.750 76.109 C 178.626 76.310,178.770 76.678,179.071 76.928 C 179.394 77.196,179.710 77.232,179.844 77.016 C 179.968 76.815,179.823 76.447,179.523 76.197 C 179.199 75.929,178.884 75.893,178.750 76.109 M114.666 96.457 C 114.511 96.707,114.616 96.848,114.912 96.787 C 115.210 96.725,115.404 96.988,115.368 97.405 C 115.324 97.938,115.423 98.015,115.742 97.695 C 116.062 97.375,116.013 97.095,115.557 96.639 C 115.124 96.207,114.854 96.151,114.666 96.457 M275.480 109.448 C 275.675 110.032,276.563 110.353,276.563 109.840 C 276.563 109.630,276.284 109.352,275.944 109.221 C 275.563 109.075,275.385 109.163,275.480 109.448 M199.764 112.674 C 199.913 113.092,200.313 114.285,200.653 115.326 C 200.993 116.366,201.339 117.150,201.422 117.068 C 201.646 116.844,200.320 112.757,199.877 112.305 C 199.626 112.048,199.587 112.175,199.764 112.674 M273.629 113.678 C 273.494 113.897,273.220 113.974,273.020 113.851 C 272.820 113.727,272.656 113.906,272.656 114.249 C 272.656 114.744,272.811 114.788,273.416 114.465 C 274.315 113.983,274.819 113.281,274.265 113.281 C 274.050 113.281,273.764 113.460,273.629 113.678 M153.320 125.932 C 153.965 126.226,154.932 126.574,155.469 126.705 C 156.253 126.898,156.215 126.840,155.273 126.411 C 154.629 126.118,153.662 125.770,153.125 125.638 C 152.341 125.446,152.379 125.504,153.320 125.932 M177.344 132.036 C 177.666 132.242,178.442 132.413,179.069 132.416 C 180.580 132.424,180.251 132.198,178.320 131.902 C 177.256 131.739,176.945 131.782,177.344 132.036 M218.134 151.172 C 218.134 155.576,218.190 157.378,218.260 155.176 C 218.330 152.974,218.330 149.370,218.260 147.168 C 218.190 144.966,218.134 146.768,218.134 151.172 M188.429 157.813 C 188.429 160.283,188.492 161.294,188.570 160.059 C 188.647 158.823,188.647 156.802,188.570 155.566 C 188.492 154.331,188.429 155.342,188.429 157.813 M218.127 166.211 C 218.127 169.648,218.187 171.002,218.260 169.220 C 218.332 167.437,218.332 164.625,218.259 162.970 C 218.186 161.315,218.126 162.773,218.127 166.211 M188.048 185.938 C 188.048 189.268,188.108 190.630,188.181 188.965 C 188.254 187.300,188.254 184.575,188.181 182.910 C 188.108 181.245,188.048 182.607,188.048 185.938 M217.724 195.898 C 217.725 198.262,217.789 199.178,217.867 197.935 C 217.945 196.692,217.944 194.758,217.866 193.638 C 217.787 192.518,217.723 193.535,217.724 195.898 M187.599 228.320 C 187.603 229.180,187.683 229.485,187.776 228.999 C 187.870 228.513,187.866 227.810,187.768 227.437 C 187.671 227.063,187.594 227.461,187.599 228.320 M187.625 233.203 C 187.625 234.600,187.696 235.171,187.783 234.473 C 187.869 233.774,187.869 232.632,187.783 231.934 C 187.696 231.235,187.625 231.807,187.625 233.203 M217.305 233.203 C 217.305 234.385,217.378 234.868,217.467 234.277 C 217.557 233.687,217.557 232.720,217.467 232.129 C 217.378 231.538,217.305 232.021,217.305 233.203 M217.358 245.703 C 217.358 251.396,217.413 253.726,217.479 250.879 C 217.546 248.032,217.546 243.374,217.479 240.527 C 217.413 237.681,217.358 240.010,217.358 245.703 M187.612 239.648 C 187.615 240.723,187.691 241.116,187.780 240.522 C 187.870 239.928,187.868 239.049,187.775 238.569 C 187.682 238.088,187.609 238.574,187.612 239.648 M187.648 248.047 C 187.648 250.518,187.711 251.528,187.789 250.293 C 187.866 249.058,187.866 247.036,187.789 245.801 C 187.711 244.565,187.648 245.576,187.648 248.047 M187.591 253.906 C 187.591 254.658,187.671 254.966,187.769 254.590 C 187.868 254.214,187.868 253.599,187.769 253.223 C 187.671 252.847,187.591 253.154,187.591 253.906 M216.971 298.438 C 216.971 305.205,217.024 307.974,217.089 304.590 C 217.154 301.206,217.154 295.669,217.089 292.285 C 217.024 288.901,216.971 291.670,216.971 298.438 M188.055 307.031 C 188.055 311.436,188.112 313.237,188.182 311.035 C 188.252 308.833,188.252 305.229,188.182 303.027 C 188.112 300.825,188.055 302.627,188.055 307.031 M200.103 341.296 C 200.697 341.386,201.576 341.383,202.056 341.291 C 202.537 341.198,202.051 341.124,200.977 341.127 C 199.902 341.130,199.509 341.206,200.103 341.296 M211.822 341.296 C 212.416 341.386,213.294 341.383,213.775 341.291 C 214.255 341.198,213.770 341.124,212.695 341.127 C 211.621 341.130,211.228 341.206,211.822 341.296 M195.436 342.089 C 199.478 342.153,205.982 342.153,209.889 342.089 C 213.796 342.026,210.488 341.974,202.539 341.974 C 194.590 341.974,191.393 342.026,195.436 342.089 " stroke="none" fill="#1d6431" fill-rule="evenodd"></path><path id="path4" d="M127.051 50.670 C 127.642 50.760,128.608 50.760,129.199 50.670 C 129.790 50.581,129.307 50.508,128.125 50.508 C 126.943 50.508,126.460 50.581,127.051 50.670 M105.988 69.727 C 105.989 71.230,106.060 71.798,106.144 70.987 C 106.229 70.177,106.228 68.946,106.141 68.253 C 106.055 67.560,105.986 68.223,105.988 69.727 M188.763 136.719 C 188.763 137.471,188.843 137.778,188.941 137.402 C 189.039 137.026,189.039 136.411,188.941 136.035 C 188.843 135.659,188.763 135.967,188.763 136.719 M125.488 139.355 C 137.036 139.413,155.933 139.413,167.480 139.355 C 179.028 139.298,169.580 139.251,146.484 139.251 C 123.389 139.251,113.940 139.298,125.488 139.355 M238.965 139.355 C 250.620 139.413,269.692 139.413,281.348 139.355 C 293.003 139.298,283.467 139.251,260.156 139.251 C 236.846 139.251,227.310 139.298,238.965 139.355 M324.801 240.430 C 324.801 283.398,324.847 300.919,324.902 279.363 C 324.958 257.808,324.958 222.652,324.902 201.238 C 324.847 179.825,324.801 197.461,324.801 240.430 M317.166 334.668 L 315.820 336.133 317.285 334.787 C 318.091 334.046,318.750 333.387,318.750 333.322 C 318.750 333.024,318.419 333.305,317.166 334.668 " stroke="none" fill="#a9c4a6" fill-rule="evenodd"></path></g></svg>